<svg xmlns="http://www.w3.org/2000/svg" width="300.707" height="236.052" viewBox="0 0 300.707 236.052">
  <path id="home-solid" d="M141.478,90.694l-93.04,76.629v82.705a8.074,8.074,0,0,0,8.074,8.074l56.55-.146a8.074,8.074,0,0,0,8.034-8.074v-48.3a8.074,8.074,0,0,1,8.074-8.074h32.3a8.074,8.074,0,0,1,8.074,8.074v48.264a8.074,8.074,0,0,0,8.074,8.1l56.529.156a8.074,8.074,0,0,0,8.074-8.074V167.268L149.2,90.694a6.152,6.152,0,0,0-7.721,0Zm146.966,52.084L246.255,108v-69.9A6.056,6.056,0,0,0,240.2,32.05H211.94a6.056,6.056,0,0,0-6.056,6.056V74.747L160.7,37.576a24.223,24.223,0,0,0-30.783,0L2.183,142.778a6.056,6.056,0,0,0-.807,8.528L14.243,166.95a6.056,6.056,0,0,0,8.533.823L141.478,70a6.152,6.152,0,0,1,7.721,0L267.9,167.772a6.056,6.056,0,0,0,8.528-.807L289.3,151.321a6.056,6.056,0,0,0-.858-8.543Z" transform="translate(5.021 -27.05)" fill="none" stroke="#138992" stroke-width="10"/>
</svg>
