<svg xmlns="http://www.w3.org/2000/svg" width="255.935" height="291.068" viewBox="0 0 255.935 291.068">
  <path id="building-solid" d="M239.347,263.5H228.368V13.175A13.175,13.175,0,0,0,215.193,0H30.742A13.175,13.175,0,0,0,17.567,13.175V263.5H6.588A6.588,6.588,0,0,0,0,270.089v10.979H245.935V270.089A6.588,6.588,0,0,0,239.347,263.5ZM70.267,41.721a6.588,6.588,0,0,1,6.588-6.588H98.813a6.588,6.588,0,0,1,6.588,6.588V63.679a6.588,6.588,0,0,1-6.588,6.588H76.855a6.588,6.588,0,0,1-6.588-6.588Zm0,52.7a6.588,6.588,0,0,1,6.588-6.588H98.813a6.588,6.588,0,0,1,6.588,6.588V116.38a6.588,6.588,0,0,1-6.588,6.588H76.855a6.588,6.588,0,0,1-6.588-6.588Zm28.546,81.246H76.855a6.588,6.588,0,0,1-6.588-6.588V147.122a6.588,6.588,0,0,1,6.588-6.588H98.813a6.588,6.588,0,0,1,6.588,6.588V169.08A6.588,6.588,0,0,1,98.813,175.668ZM140.534,263.5H105.4V217.389a6.588,6.588,0,0,1,6.588-6.588h21.958a6.588,6.588,0,0,1,6.588,6.588Zm35.134-94.421a6.588,6.588,0,0,1-6.588,6.588H147.122a6.588,6.588,0,0,1-6.588-6.588V147.122a6.588,6.588,0,0,1,6.588-6.588H169.08a6.588,6.588,0,0,1,6.588,6.588Zm0-52.7a6.588,6.588,0,0,1-6.588,6.588H147.122a6.588,6.588,0,0,1-6.588-6.588V94.421a6.588,6.588,0,0,1,6.588-6.588H169.08a6.588,6.588,0,0,1,6.588,6.588Zm0-52.7a6.588,6.588,0,0,1-6.588,6.588H147.122a6.588,6.588,0,0,1-6.588-6.588V41.721a6.588,6.588,0,0,1,6.588-6.588H169.08a6.588,6.588,0,0,1,6.588,6.588Z" transform="translate(5 5)" fill="none" stroke="#138992" stroke-width="10"/>
</svg>
